<mxfile host="app.diagrams.net" modified="2024-03-26T16:51:10.079Z" agent="Mozilla/5.0 (Windows NT 10.0; Win64; x64) AppleWebKit/537.36 (KHTML, like Gecko) Chrome/122.0.0.0 Safari/537.36 Edg/122.0.0.0" etag="F695GccuOZ1AefwaFOaF" version="24.2.0" type="github">
  <diagram name="Page-1" id="e7e014a7-5840-1c2e-5031-d8a46d1fe8dd">
    <mxGraphModel dx="1055" dy="599" grid="1" gridSize="10" guides="1" tooltips="1" connect="1" arrows="1" fold="1" page="1" pageScale="1" pageWidth="1169" pageHeight="826" background="none" math="0" shadow="0">
      <root>
        <mxCell id="0" />
        <mxCell id="1" parent="0" />
        <mxCell id="3pHODhPSXyVhm8R5EIDx-41" value="" style="swimlane;childLayout=stackLayout;resizeParent=1;resizeParentMax=0;startSize=20;html=1;" parent="1" vertex="1">
          <mxGeometry x="200" y="40" width="900" height="730" as="geometry">
            <mxRectangle x="200" y="40" width="50" height="40" as="alternateBounds" />
          </mxGeometry>
        </mxCell>
        <mxCell id="3pHODhPSXyVhm8R5EIDx-59" value="" style="edgeStyle=orthogonalEdgeStyle;rounded=0;orthogonalLoop=1;jettySize=auto;html=1;" parent="3pHODhPSXyVhm8R5EIDx-41" source="3pHODhPSXyVhm8R5EIDx-52" target="3pHODhPSXyVhm8R5EIDx-44" edge="1">
          <mxGeometry relative="1" as="geometry" />
        </mxCell>
        <mxCell id="3pHODhPSXyVhm8R5EIDx-60" style="edgeStyle=orthogonalEdgeStyle;rounded=0;orthogonalLoop=1;jettySize=auto;html=1;exitX=1;exitY=0.5;exitDx=0;exitDy=0;entryX=0.5;entryY=0;entryDx=0;entryDy=0;" parent="3pHODhPSXyVhm8R5EIDx-41" source="3pHODhPSXyVhm8R5EIDx-43" target="3pHODhPSXyVhm8R5EIDx-52" edge="1">
          <mxGeometry relative="1" as="geometry" />
        </mxCell>
        <mxCell id="3pHODhPSXyVhm8R5EIDx-61" style="edgeStyle=orthogonalEdgeStyle;rounded=0;orthogonalLoop=1;jettySize=auto;html=1;exitX=0.5;exitY=1;exitDx=0;exitDy=0;entryX=0;entryY=0.5;entryDx=0;entryDy=0;" parent="3pHODhPSXyVhm8R5EIDx-41" source="3pHODhPSXyVhm8R5EIDx-44" target="3pHODhPSXyVhm8R5EIDx-51" edge="1">
          <mxGeometry relative="1" as="geometry" />
        </mxCell>
        <mxCell id="3pHODhPSXyVhm8R5EIDx-42" value="Người dùng" style="swimlane;startSize=20;html=1;" parent="3pHODhPSXyVhm8R5EIDx-41" vertex="1">
          <mxGeometry y="20" width="400" height="710" as="geometry">
            <mxRectangle y="20" width="40" height="460" as="alternateBounds" />
          </mxGeometry>
        </mxCell>
        <mxCell id="3pHODhPSXyVhm8R5EIDx-43" value="" style="ellipse;shape=startState;fillColor=#000000;strokeColor=#ff0000;" parent="3pHODhPSXyVhm8R5EIDx-42" vertex="1">
          <mxGeometry x="135.61064516128988" y="50" width="50.61161290322582" height="49.99999999999999" as="geometry" />
        </mxCell>
        <mxCell id="3pHODhPSXyVhm8R5EIDx-44" value="Điền thông tin đăng nhập" style="rounded=1;whiteSpace=wrap;html=1;arcSize=40;fontColor=#000000;fillColor=#ffffc0;strokeColor=#ff0000;" parent="3pHODhPSXyVhm8R5EIDx-42" vertex="1">
          <mxGeometry x="80" y="140" width="161.83" height="40" as="geometry" />
        </mxCell>
        <mxCell id="3pHODhPSXyVhm8R5EIDx-49" value="Hệ thống" style="swimlane;startSize=20;html=1;" parent="3pHODhPSXyVhm8R5EIDx-41" vertex="1">
          <mxGeometry x="400" y="20" width="500" height="710" as="geometry" />
        </mxCell>
        <mxCell id="3pHODhPSXyVhm8R5EIDx-50" style="edgeStyle=orthogonalEdgeStyle;rounded=0;orthogonalLoop=1;jettySize=auto;html=1;exitX=0.5;exitY=1;exitDx=0;exitDy=0;entryX=0.5;entryY=0;entryDx=0;entryDy=0;" parent="3pHODhPSXyVhm8R5EIDx-49" source="3pHODhPSXyVhm8R5EIDx-51" target="3pHODhPSXyVhm8R5EIDx-53" edge="1">
          <mxGeometry relative="1" as="geometry" />
        </mxCell>
        <mxCell id="3pHODhPSXyVhm8R5EIDx-51" value="Kiểm tra thông tin đăng nhập" style="whiteSpace=wrap;html=1;fillColor=#ffffc0;strokeColor=#ff0000;fontColor=#000000;rounded=1;arcSize=40;" parent="3pHODhPSXyVhm8R5EIDx-49" vertex="1">
          <mxGeometry x="135.92000000000002" y="180" width="160" height="40" as="geometry" />
        </mxCell>
        <mxCell id="3pHODhPSXyVhm8R5EIDx-52" value="Hiển thị màn hình đăng nhập" style="rounded=1;whiteSpace=wrap;html=1;arcSize=40;fontColor=#000000;fillColor=#ffffc0;strokeColor=#ff0000;" parent="3pHODhPSXyVhm8R5EIDx-49" vertex="1">
          <mxGeometry x="140" y="100" width="151.83" height="40" as="geometry" />
        </mxCell>
        <mxCell id="3pHODhPSXyVhm8R5EIDx-53" value="" style="rhombus;whiteSpace=wrap;html=1;fillColor=#ffffc0;strokeColor=#ff0000;fontColor=#000000;rounded=1;arcSize=0;" parent="3pHODhPSXyVhm8R5EIDx-49" vertex="1">
          <mxGeometry x="184.89999999999998" y="260" width="62.04" height="40" as="geometry" />
        </mxCell>
        <mxCell id="3pHODhPSXyVhm8R5EIDx-54" value="hợp lệ" style="text;html=1;align=center;verticalAlign=middle;resizable=0;points=[];autosize=1;strokeColor=none;fillColor=none;" parent="3pHODhPSXyVhm8R5EIDx-49" vertex="1">
          <mxGeometry x="235.92000000000002" y="250" width="60" height="30" as="geometry" />
        </mxCell>
        <mxCell id="3pHODhPSXyVhm8R5EIDx-79" style="edgeStyle=orthogonalEdgeStyle;rounded=0;orthogonalLoop=1;jettySize=auto;html=1;exitX=0.5;exitY=1;exitDx=0;exitDy=0;entryX=0.5;entryY=0;entryDx=0;entryDy=0;" parent="3pHODhPSXyVhm8R5EIDx-49" source="3pHODhPSXyVhm8R5EIDx-72" target="3pHODhPSXyVhm8R5EIDx-76" edge="1">
          <mxGeometry relative="1" as="geometry" />
        </mxCell>
        <mxCell id="3pHODhPSXyVhm8R5EIDx-72" value="Xác nhận đăng nhập" style="rounded=1;whiteSpace=wrap;html=1;arcSize=40;fontColor=#000000;fillColor=#ffffc0;strokeColor=#ff0000;" parent="3pHODhPSXyVhm8R5EIDx-49" vertex="1">
          <mxGeometry x="215.91333333333353" y="340" width="120" height="40" as="geometry" />
        </mxCell>
        <mxCell id="3pHODhPSXyVhm8R5EIDx-71" style="edgeStyle=orthogonalEdgeStyle;rounded=0;orthogonalLoop=1;jettySize=auto;html=1;exitX=1;exitY=0.5;exitDx=0;exitDy=0;" parent="3pHODhPSXyVhm8R5EIDx-49" source="3pHODhPSXyVhm8R5EIDx-53" target="3pHODhPSXyVhm8R5EIDx-72" edge="1">
          <mxGeometry relative="1" as="geometry">
            <mxPoint x="215.83333333333348" y="340" as="targetPoint" />
            <Array as="points">
              <mxPoint x="300" y="280" />
            </Array>
          </mxGeometry>
        </mxCell>
        <mxCell id="3pHODhPSXyVhm8R5EIDx-84" style="edgeStyle=orthogonalEdgeStyle;rounded=0;orthogonalLoop=1;jettySize=auto;html=1;exitX=1;exitY=0.5;exitDx=0;exitDy=0;" parent="3pHODhPSXyVhm8R5EIDx-49" source="3pHODhPSXyVhm8R5EIDx-76" edge="1">
          <mxGeometry relative="1" as="geometry">
            <mxPoint x="316.1379310344828" y="439.68965517241384" as="targetPoint" />
          </mxGeometry>
        </mxCell>
        <mxCell id="3pHODhPSXyVhm8R5EIDx-86" value="" style="edgeStyle=orthogonalEdgeStyle;rounded=0;orthogonalLoop=1;jettySize=auto;html=1;entryX=0.5;entryY=0;entryDx=0;entryDy=0;" parent="3pHODhPSXyVhm8R5EIDx-49" target="3pHODhPSXyVhm8R5EIDx-87" edge="1">
          <mxGeometry relative="1" as="geometry">
            <mxPoint x="315.9110344827586" y="439.9994827586206" as="sourcePoint" />
            <mxPoint x="415.88999999999965" y="480.01" as="targetPoint" />
          </mxGeometry>
        </mxCell>
        <mxCell id="3pHODhPSXyVhm8R5EIDx-76" value="" style="rhombus;whiteSpace=wrap;html=1;fontColor=#000000;fillColor=#ffffc0;strokeColor=#ff0000;" parent="3pHODhPSXyVhm8R5EIDx-49" vertex="1">
          <mxGeometry x="235.91" y="420" width="80" height="40" as="geometry" />
        </mxCell>
        <mxCell id="SNmsoHeyEKtVjD59VMux-3" style="edgeStyle=orthogonalEdgeStyle;rounded=0;orthogonalLoop=1;jettySize=auto;html=1;exitX=0.5;exitY=1;exitDx=0;exitDy=0;entryX=0;entryY=0.5;entryDx=0;entryDy=0;" parent="3pHODhPSXyVhm8R5EIDx-49" source="3pHODhPSXyVhm8R5EIDx-80" target="SNmsoHeyEKtVjD59VMux-1" edge="1">
          <mxGeometry relative="1" as="geometry" />
        </mxCell>
        <mxCell id="3pHODhPSXyVhm8R5EIDx-80" value="Hiển thị giao diện của người dùng" style="rounded=1;whiteSpace=wrap;html=1;arcSize=40;fontColor=#000000;fillColor=#ffffc0;strokeColor=#ff0000;" parent="3pHODhPSXyVhm8R5EIDx-49" vertex="1">
          <mxGeometry x="135" y="500" width="120" height="40" as="geometry" />
        </mxCell>
        <mxCell id="3pHODhPSXyVhm8R5EIDx-83" style="edgeStyle=orthogonalEdgeStyle;rounded=0;orthogonalLoop=1;jettySize=auto;html=1;exitX=0;exitY=0.5;exitDx=0;exitDy=0;entryX=0.458;entryY=0.018;entryDx=0;entryDy=0;entryPerimeter=0;" parent="3pHODhPSXyVhm8R5EIDx-49" source="3pHODhPSXyVhm8R5EIDx-76" edge="1">
          <mxGeometry relative="1" as="geometry">
            <mxPoint x="230.84999999999985" y="439.28" as="sourcePoint" />
            <mxPoint x="184.90000000000003" y="500" as="targetPoint" />
          </mxGeometry>
        </mxCell>
        <mxCell id="SNmsoHeyEKtVjD59VMux-5" style="edgeStyle=orthogonalEdgeStyle;rounded=0;orthogonalLoop=1;jettySize=auto;html=1;exitX=0.5;exitY=1;exitDx=0;exitDy=0;entryX=1;entryY=0.5;entryDx=0;entryDy=0;" parent="3pHODhPSXyVhm8R5EIDx-49" source="3pHODhPSXyVhm8R5EIDx-87" target="SNmsoHeyEKtVjD59VMux-1" edge="1">
          <mxGeometry relative="1" as="geometry" />
        </mxCell>
        <mxCell id="3pHODhPSXyVhm8R5EIDx-87" value="Hiển thị giao diện của admin" style="rounded=1;whiteSpace=wrap;html=1;arcSize=40;fontColor=#000000;fillColor=#ffffc0;strokeColor=#ff0000;" parent="3pHODhPSXyVhm8R5EIDx-49" vertex="1">
          <mxGeometry x="330" y="500" width="120" height="40" as="geometry" />
        </mxCell>
        <mxCell id="3pHODhPSXyVhm8R5EIDx-88" value="" style="ellipse;html=1;shape=endState;fillColor=#000000;strokeColor=#ff0000;" parent="3pHODhPSXyVhm8R5EIDx-49" vertex="1">
          <mxGeometry x="275" y="660" width="30" height="30" as="geometry" />
        </mxCell>
        <mxCell id="SNmsoHeyEKtVjD59VMux-4" style="edgeStyle=orthogonalEdgeStyle;rounded=0;orthogonalLoop=1;jettySize=auto;html=1;exitX=0.5;exitY=1;exitDx=0;exitDy=0;entryX=0.5;entryY=0;entryDx=0;entryDy=0;" parent="3pHODhPSXyVhm8R5EIDx-49" source="SNmsoHeyEKtVjD59VMux-1" target="3pHODhPSXyVhm8R5EIDx-88" edge="1">
          <mxGeometry relative="1" as="geometry" />
        </mxCell>
        <mxCell id="SNmsoHeyEKtVjD59VMux-1" value="" style="rhombus;whiteSpace=wrap;html=1;fontColor=#000000;fillColor=#ffffc0;strokeColor=#ff0000;" parent="3pHODhPSXyVhm8R5EIDx-49" vertex="1">
          <mxGeometry x="249.99999999999997" y="550" width="80" height="40" as="geometry" />
        </mxCell>
        <mxCell id="R5dKGzbK6x6_cyl1uyJK-2" value="không hợp lệ" style="text;html=1;align=center;verticalAlign=middle;resizable=0;points=[];autosize=1;strokeColor=none;fillColor=none;" vertex="1" parent="3pHODhPSXyVhm8R5EIDx-49">
          <mxGeometry x="110" y="250" width="90" height="30" as="geometry" />
        </mxCell>
        <mxCell id="R5dKGzbK6x6_cyl1uyJK-3" value="hiển thị thông báo sai mật khẩu" style="rounded=1;whiteSpace=wrap;html=1;arcSize=40;fontColor=#000000;fillColor=#ffffc0;strokeColor=#ff0000;" vertex="1" parent="3pHODhPSXyVhm8R5EIDx-49">
          <mxGeometry x="30.003333333333558" y="340" width="120" height="40" as="geometry" />
        </mxCell>
        <mxCell id="R5dKGzbK6x6_cyl1uyJK-1" style="edgeStyle=orthogonalEdgeStyle;rounded=0;orthogonalLoop=1;jettySize=auto;html=1;exitX=0;exitY=0.5;exitDx=0;exitDy=0;entryX=0.5;entryY=0;entryDx=0;entryDy=0;" edge="1" parent="3pHODhPSXyVhm8R5EIDx-49" source="3pHODhPSXyVhm8R5EIDx-53" target="R5dKGzbK6x6_cyl1uyJK-3">
          <mxGeometry relative="1" as="geometry">
            <mxPoint x="130.00333333333356" y="340" as="targetPoint" />
          </mxGeometry>
        </mxCell>
        <mxCell id="R5dKGzbK6x6_cyl1uyJK-7" value="admin" style="text;html=1;align=center;verticalAlign=middle;resizable=0;points=[];autosize=1;strokeColor=none;fillColor=none;" vertex="1" parent="3pHODhPSXyVhm8R5EIDx-49">
          <mxGeometry x="330" y="410" width="60" height="30" as="geometry" />
        </mxCell>
        <mxCell id="R5dKGzbK6x6_cyl1uyJK-8" style="edgeStyle=orthogonalEdgeStyle;rounded=0;orthogonalLoop=1;jettySize=auto;html=1;exitX=0;exitY=0.5;exitDx=0;exitDy=0;entryX=0.186;entryY=1.051;entryDx=0;entryDy=0;entryPerimeter=0;" edge="1" parent="3pHODhPSXyVhm8R5EIDx-41" source="R5dKGzbK6x6_cyl1uyJK-3" target="3pHODhPSXyVhm8R5EIDx-44">
          <mxGeometry relative="1" as="geometry" />
        </mxCell>
        <mxCell id="R5dKGzbK6x6_cyl1uyJK-6" value="user" style="text;html=1;align=center;verticalAlign=middle;resizable=0;points=[];autosize=1;strokeColor=none;fillColor=none;" vertex="1" parent="1">
          <mxGeometry x="775" y="468" width="50" height="30" as="geometry" />
        </mxCell>
      </root>
    </mxGraphModel>
  </diagram>
</mxfile>
